<svg xmlns="http://www.w3.org/2000/svg" xmlns:xlink="http://www.w3.org/1999/xlink" width="13" height="13" viewBox="0 0 13 13">
	
	<!-- Background -->
	<path fill="#DC2626FF" stroke="#00000000" stroke-width="0" x="0" y="0" d="M1,0 L12,0 12,1 L13,1 L13,12 L12,12 L12,13 L1,13 L1,12 L0,12 L0,1 L1,1 L1,0 Z" />
	
	<!-- Character: E -->
	<path fill="#FFFFFFFF" stroke="#00000000" stroke-width="0" x="2" y="2" d="M3,2 L11,2 L11,3 L5,3 L5,6 L10,6 L10,7 L5,7 L5,10 L11,10 L11,11 L3,11 L3,10 L2,10 L2,3 L3,3 L3,2 Z" />
	
</svg>
